<svg id="_09---Music-Player" data-name="#09---Music-Player" xmlns="http://www.w3.org/2000/svg" xmlns:xlink="http://www.w3.org/1999/xlink" width="325" height="37.016" viewBox="0 0 325 37.016">
  <defs>
    <linearGradient id="linear-gradient" x1="1" y1="0.5" x2="0.5" y2="0.5" gradientUnits="objectBoundingBox">
      <stop offset="0" stop-color="#ffa5a0"/>
      <stop offset="0.813" stop-color="#ffb8ac"/>
      <stop offset="1" stop-color="#fde3eb"/>
    </linearGradient>
  </defs>
  <g id="Music-Player">
    <g id="Group_3" data-name="Group 3" transform="translate(0 0)">
      <g id="Design">
        <g id="Player">
          <g id="Timeline" transform="translate(325 37.016) rotate(180)">
            <path id="Combined-Shape" d="M1.18,20.564c.652,0,1.18-.921,1.18-2.056s-.528-2.056-1.18-2.056S0,17.372,0,18.508.528,20.564,1.18,20.564Zm9.05.683V15.768c0-1.139-.528-2.059-1.18-2.059s-1.18.922-1.18,2.059v5.479c0,1.139.528,2.059,1.18,2.059S10.23,22.385,10.23,21.248ZM29.9,30.854V4.791c0-1.13-.528-2.049-1.18-2.049s-1.18.918-1.18,2.049V30.854c0,1.13.528,2.049,1.18,2.049S29.9,31.985,29.9,30.854Zm-3.935-4.11V10.273c0-1.137-.528-2.047-1.18-2.047s-1.18.916-1.18,2.047v16.47c0,1.137.528,2.047,1.18,2.047S25.969,27.874,25.969,26.743Zm-3.935-1.378V10.28c0-1.128-.528-2.054-1.18-2.054s-1.18.92-1.18,2.054V25.365c0,1.128.528,2.054,1.18,2.054S22.034,26.5,22.034,25.365ZM18.1,24V11.647c0-1.119-.528-2.05-1.18-2.05s-1.18.918-1.18,2.05V24c0,1.119.528,2.05,1.18,2.05S18.1,25.13,18.1,24Zm-3.935-1.386V14.4c0-1.138-.528-2.065-1.18-2.065s-1.18.925-1.18,2.065v8.208c0,1.138.528,2.065,1.18,2.065S14.165,23.753,14.165,22.612ZM6.3,19.879V17.137c0-1.132-.528-2.057-1.18-2.057s-1.18.921-1.18,2.057v2.741c0,1.132.528,2.057,1.18,2.057S6.3,21.014,6.3,19.879ZM33.838,34.973V2.043C33.838.915,33.309,0,32.657,0s-1.18.915-1.18,2.043v32.93c0,1.128.528,2.043,1.18,2.043S33.838,36.1,33.838,34.973Zm3.935-9.6V11.641c0-1.136-.528-2.044-1.18-2.044s-1.18.915-1.18,2.044V25.375c0,1.136.528,2.044,1.18,2.044S37.772,26.5,37.772,25.375Zm3.935,1.368V10.273c0-1.137-.528-2.047-1.18-2.047s-1.18.916-1.18,2.047v16.47c0,1.137.528,2.047,1.18,2.047S41.707,27.874,41.707,26.743Zm3.935,0V10.273c0-1.137-.528-2.047-1.18-2.047s-1.18.916-1.18,2.047v16.47c0,1.137.528,2.047,1.18,2.047S45.642,27.874,45.642,26.743ZM49.576,24V11.647c0-1.119-.528-2.05-1.18-2.05s-1.18.918-1.18,2.05V24c0,1.119.528,2.05,1.18,2.05S49.576,25.13,49.576,24Zm3.935,1.377V11.641c0-1.136-.528-2.044-1.18-2.044s-1.18.915-1.18,2.044V25.375c0,1.136.528,2.044,1.18,2.044S53.511,26.5,53.511,25.375Zm3.935,4.113V7.528c0-1.117-.528-2.044-1.18-2.044s-1.18.915-1.18,2.044v21.96c0,1.117.528,2.044,1.18,2.044S57.446,30.617,57.446,29.488Zm3.935-2.745V10.273c0-1.137-.528-2.047-1.18-2.047s-1.18.916-1.18,2.047v16.47c0,1.137.528,2.047,1.18,2.047S61.38,27.874,61.38,26.743Zm3.935-4.118v-9.6c0-1.132-.528-2.052-1.18-2.052s-1.18.919-1.18,2.052v9.6c0,1.132.528,2.052,1.18,2.052S65.315,23.758,65.315,22.625Zm3.935,2.75V11.641c0-1.136-.528-2.044-1.18-2.044s-1.18.915-1.18,2.044V25.375c0,1.136.528,2.044,1.18,2.044S69.249,26.5,69.249,25.375Zm3.935,1.368V10.273c0-1.137-.528-2.047-1.18-2.047s-1.18.916-1.18,2.047v16.47c0,1.137.528,2.047,1.18,2.047S73.184,27.874,73.184,26.743Zm3.935-1.378V10.28c0-1.128-.528-2.054-1.18-2.054s-1.18.92-1.18,2.054V25.365c0,1.128.528,2.054,1.18,2.054S77.119,26.5,77.119,25.365ZM81.053,24V11.647c0-1.119-.528-2.05-1.18-2.05s-1.18.918-1.18,2.05V24c0,1.119.528,2.05,1.18,2.05S81.053,25.13,81.053,24Zm3.935-1.386V14.4c0-1.138-.528-2.065-1.18-2.065s-1.18.925-1.18,2.065v8.208c0,1.138.528,2.065,1.18,2.065S84.988,23.753,84.988,22.612Zm3.935,2.753V10.28c0-1.128-.528-2.054-1.18-2.054s-1.18.92-1.18,2.054V25.365c0,1.128.528,2.054,1.18,2.054S88.923,26.5,88.923,25.365Zm3.935,8.213V3.438c0-1.15-.528-2.067-1.18-2.067S90.5,2.3,90.5,3.438v30.14c0,1.15.528,2.067,1.18,2.067S92.857,34.719,92.857,33.578Zm3.935-10.966V14.4c0-1.138-.528-2.065-1.18-2.065s-1.18.925-1.18,2.065v8.208c0,1.138.528,2.065,1.18,2.065S96.792,23.753,96.792,22.612Zm3.935,5.488V7.545c0-1.154-.528-2.062-1.18-2.062s-1.18.923-1.18,2.062V28.1c0,1.154.528,2.062,1.18,2.062S100.726,29.238,100.726,28.1Zm72.4,2.754c0,1.132.524,2.049,1.18,2.049s1.18-.919,1.18-2.049V4.791c0-1.132-.524-2.049-1.18-2.049s-1.18.919-1.18,2.049ZM169.189,28.1c0,1.139.524,2.062,1.18,2.062s1.18-.908,1.18-2.062V7.545c0-1.139-.524-2.062-1.18-2.062s-1.18.908-1.18,2.062Zm-3.935-2.725c0,1.129.524,2.044,1.18,2.044s1.18-.908,1.18-2.044V11.641c0-1.129-.524-2.044-1.18-2.044s-1.18.908-1.18,2.044Zm-3.935,1.368c0,1.131.524,2.047,1.18,2.047s1.18-.91,1.18-2.047V10.273c0-1.131-.524-2.047-1.18-2.047s-1.18.91-1.18,2.047Zm-3.935,0c0,1.131.524,2.047,1.18,2.047s1.18-.91,1.18-2.047V10.273c0-1.131-.524-2.047-1.18-2.047s-1.18.91-1.18,2.047Zm-3.935,4.112c0,1.131.524,2.047,1.18,2.047s1.18-.925,1.18-2.047V6.16c0-1.131-.524-2.047-1.18-2.047s-1.18.925-1.18,2.047Zm-3.935-5.481c0,1.129.524,2.044,1.18,2.044s1.18-.908,1.18-2.044V11.641c0-1.129-.524-2.044-1.18-2.044s-1.18.908-1.18,2.044Zm-3.935,4.113c0,1.129.524,2.044,1.18,2.044s1.18-.927,1.18-2.044V7.528c0-1.129-.524-2.044-1.18-2.044s-1.18.927-1.18,2.044Zm-3.935,5.485c0,1.128.524,2.043,1.18,2.043s1.18-.915,1.18-2.043V2.043c0-1.128-.524-2.043-1.18-2.043s-1.18.915-1.18,2.043Zm-3.935-4.117c0,1.131.524,2.047,1.18,2.047s1.18-.925,1.18-2.047V6.16c0-1.131-.524-2.047-1.18-2.047s-1.18.925-1.18,2.047Zm-3.935,0c0,1.131.524,2.047,1.18,2.047s1.18-.925,1.18-2.047V6.16c0-1.131-.524-2.047-1.18-2.047s-1.18.925-1.18,2.047Zm-3.935-4.112c0,1.131.524,2.047,1.18,2.047s1.18-.91,1.18-2.047V10.273c0-1.131-.524-2.047-1.18-2.047s-1.18.91-1.18,2.047Zm-3.935-1.378c0,1.134.524,2.054,1.18,2.054s1.18-.926,1.18-2.054V10.28c0-1.134-.524-2.054-1.18-2.054s-1.18.926-1.18,2.054ZM121.973,24c0,1.132.524,2.05,1.18,2.05s1.18-.932,1.18-2.05V11.647c0-1.132-.524-2.05-1.18-2.05s-1.18.932-1.18,2.05Zm-3.935-1.386c0,1.141.524,2.065,1.18,2.065s1.18-.927,1.18-2.065V14.4c0-1.141-.524-2.065-1.18-2.065s-1.18.927-1.18,2.065ZM114.1,25.365c0,1.134.524,2.054,1.18,2.054s1.18-.926,1.18-2.054V10.28c0-1.134-.524-2.054-1.18-2.054s-1.18.926-1.18,2.054Zm-3.935,4.123c0,1.129.524,2.044,1.18,2.044s1.18-.927,1.18-2.044V7.528c0-1.129-.524-2.044-1.18-2.044s-1.18.927-1.18,2.044Zm-3.935-6.876c0,1.141.524,2.065,1.18,2.065s1.18-.927,1.18-2.065V14.4c0-1.141-.524-2.065-1.18-2.065s-1.18.927-1.18,2.065ZM102.3,28.1c0,1.139.524,2.062,1.18,2.062s1.18-.908,1.18-2.062V7.545c0-1.139-.524-2.062-1.18-2.062s-1.18.908-1.18,2.062Zm77.119,2.754V4.791c0-1.13-.528-2.049-1.18-2.049s-1.18.918-1.18,2.049V30.854c0,1.13.528,2.049,1.18,2.049S179.419,31.985,179.419,30.854Zm3.935,4.119V2.043c0-1.128-.528-2.043-1.18-2.043s-1.18.915-1.18,2.043v32.93c0,1.128.528,2.043,1.18,2.043S183.354,36.1,183.354,34.973Zm3.935-9.6V11.641c0-1.136-.528-2.044-1.18-2.044s-1.18.915-1.18,2.044V25.375c0,1.136.528,2.044,1.18,2.044S187.288,26.5,187.288,25.375Zm3.935,1.368V10.273c0-1.137-.528-2.047-1.18-2.047s-1.18.916-1.18,2.047v16.47c0,1.137.528,2.047,1.18,2.047S191.223,27.874,191.223,26.743Zm3.935,0V10.273c0-1.137-.528-2.047-1.18-2.047s-1.18.916-1.18,2.047v16.47c0,1.137.528,2.047,1.18,2.047S195.157,27.874,195.157,26.743ZM199.092,24V11.647c0-1.119-.528-2.05-1.18-2.05s-1.18.918-1.18,2.05V24c0,1.119.528,2.05,1.18,2.05S199.092,25.13,199.092,24Zm3.935,1.377V11.641c0-1.136-.528-2.044-1.18-2.044s-1.18.915-1.18,2.044V25.375c0,1.136.528,2.044,1.18,2.044S203.027,26.5,203.027,25.375Zm3.935,4.113V7.528c0-1.117-.528-2.044-1.18-2.044s-1.18.915-1.18,2.044v21.96c0,1.117.528,2.044,1.18,2.044S206.961,30.617,206.961,29.488Zm3.935-2.745V10.273c0-1.137-.528-2.047-1.18-2.047s-1.18.916-1.18,2.047v16.47c0,1.137.528,2.047,1.18,2.047S210.9,27.874,210.9,26.743Zm3.935-4.118v-9.6c0-1.132-.528-2.052-1.18-2.052s-1.18.919-1.18,2.052v9.6c0,1.132.528,2.052,1.18,2.052S214.831,23.758,214.831,22.625Zm3.935,2.75V11.641c0-1.136-.528-2.044-1.18-2.044s-1.18.915-1.18,2.044V25.375c0,1.136.528,2.044,1.18,2.044S218.765,26.5,218.765,25.375Zm3.935,1.368V10.273c0-1.137-.528-2.047-1.18-2.047s-1.18.916-1.18,2.047v16.47c0,1.137.528,2.047,1.18,2.047S222.7,27.874,222.7,26.743Zm3.935-1.378V10.28c0-1.128-.528-2.054-1.18-2.054s-1.18.92-1.18,2.054V25.365c0,1.128.528,2.054,1.18,2.054S226.634,26.5,226.634,25.365ZM230.569,24V11.647c0-1.119-.528-2.05-1.18-2.05s-1.18.918-1.18,2.05V24c0,1.119.528,2.05,1.18,2.05S230.569,25.13,230.569,24Zm3.935-1.386V14.4c0-1.138-.528-2.065-1.18-2.065s-1.18.925-1.18,2.065v8.208c0,1.138.528,2.065,1.18,2.065S234.5,23.753,234.5,22.612Zm3.935,2.753V10.28c0-1.128-.528-2.054-1.18-2.054s-1.18.92-1.18,2.054V25.365c0,1.128.528,2.054,1.18,2.054S238.438,26.5,238.438,25.365Zm3.935,8.213V3.438c0-1.15-.528-2.067-1.18-2.067s-1.18.925-1.18,2.067v30.14c0,1.15.528,2.067,1.18,2.067S242.373,34.719,242.373,33.578Zm3.935-10.966V14.4c0-1.138-.528-2.065-1.18-2.065s-1.18.925-1.18,2.065v8.208c0,1.138.528,2.065,1.18,2.065S246.308,23.753,246.308,22.612Zm3.935,5.488V7.545c0-1.154-.528-2.062-1.18-2.062s-1.18.923-1.18,2.062V28.1c0,1.154.528,2.062,1.18,2.062S250.242,29.238,250.242,28.1Zm1.574,2.754c0,1.132.524,2.049,1.18,2.049s1.18-.919,1.18-2.049V4.791c0-1.132-.524-2.049-1.18-2.049s-1.18.919-1.18,2.049Zm3.935-2.754c0,1.139.524,2.062,1.18,2.062s1.18-.908,1.18-2.062V7.545c0-1.139-.524-2.062-1.18-2.062s-1.18.908-1.18,2.062Zm3.935-2.725c0,1.129.524,2.044,1.18,2.044s1.18-.908,1.18-2.044V11.641c0-1.129-.524-2.044-1.18-2.044s-1.18.908-1.18,2.044Zm3.935,1.368c0,1.131.524,2.047,1.18,2.047s1.18-.91,1.18-2.047V10.273c0-1.131-.524-2.047-1.18-2.047s-1.18.91-1.18,2.047Zm3.935,0c0,1.131.524,2.047,1.18,2.047s1.18-.91,1.18-2.047V10.273c0-1.131-.524-2.047-1.18-2.047s-1.18.91-1.18,2.047Zm3.935,4.112c0,1.131.524,2.047,1.18,2.047s1.18-.925,1.18-2.047V6.16c0-1.131-.524-2.047-1.18-2.047s-1.18.925-1.18,2.047Zm3.935-5.481c0,1.129.524,2.044,1.18,2.044s1.18-.908,1.18-2.044V11.641c0-1.129-.524-2.044-1.18-2.044s-1.18.908-1.18,2.044Zm3.935,4.113c0,1.129.524,2.044,1.18,2.044s1.18-.927,1.18-2.044V7.528c0-1.129-.524-2.044-1.18-2.044s-1.18.927-1.18,2.044Zm3.935,5.485c0,1.128.524,2.043,1.18,2.043s1.18-.915,1.18-2.043V2.043c0-1.128-.524-2.043-1.18-2.043s-1.18.915-1.18,2.043Zm3.935-4.117c0,1.131.524,2.047,1.18,2.047s1.18-.925,1.18-2.047V6.16c0-1.131-.524-2.047-1.18-2.047s-1.18.925-1.18,2.047Zm3.935,0c0,1.131.524,2.047,1.18,2.047s1.18-.925,1.18-2.047V6.16c0-1.131-.524-2.047-1.18-2.047s-1.18.925-1.18,2.047Zm3.935-4.112c0,1.131.524,2.047,1.18,2.047s1.18-.91,1.18-2.047V10.273c0-1.131-.524-2.047-1.18-2.047s-1.18.91-1.18,2.047Zm3.935-1.378c0,1.134.524,2.054,1.18,2.054s1.18-.926,1.18-2.054V10.28c0-1.134-.524-2.054-1.18-2.054s-1.18.926-1.18,2.054ZM302.966,24c0,1.132.524,2.05,1.18,2.05s1.18-.932,1.18-2.05V11.647c0-1.132-.524-2.05-1.18-2.05s-1.18.932-1.18,2.05Zm3.935-1.386c0,1.141.524,2.065,1.18,2.065s1.18-.927,1.18-2.065V14.4c0-1.141-.524-2.065-1.18-2.065s-1.18.927-1.18,2.065Zm3.935,2.753c0,1.134.524,2.054,1.18,2.054s1.18-.926,1.18-2.054V10.28c0-1.134-.524-2.054-1.18-2.054s-1.18.926-1.18,2.054Zm3.935,4.123c0,1.129.524,2.044,1.18,2.044s1.18-.927,1.18-2.044V7.528c0-1.129-.524-2.044-1.18-2.044s-1.18.927-1.18,2.044Zm3.935-6.876c0,1.141.524,2.065,1.18,2.065s1.18-.927,1.18-2.065V14.4c0-1.141-.524-2.065-1.18-2.065s-1.18.927-1.18,2.065Zm3.935,5.488c0,1.139.524,2.062,1.18,2.062S325,29.253,325,28.1V7.545c0-1.139-.524-2.062-1.18-2.062s-1.18.908-1.18,2.062Z" transform="translate(0 0)" fill-rule="evenodd" fill="url(#linear-gradient)"/>
          </g>
        </g>
      </g>
    </g>
  </g>
</svg>
